<?xml version="1.0" encoding="UTF-8" standalone="no"?> <svg width="64" height="64" viewBox="0 0 64 64" fill="none" xmlns="http://www.w3.org/2000/svg">
<path d="M58.25 3.77002H8.63005C8.07681 3.77132 7.52927 3.88192 7.01889 4.09545C6.50852 4.30898 6.04536 4.62124 5.65602 5.0143C5.26668 5.40736 4.95883 5.87346 4.75016 6.38585C4.54148 6.89823 4.4361 7.44679 4.44005 8.00002V41.58C4.44005 42.6913 4.88149 43.757 5.66727 44.5428C6.45305 45.3286 7.51879 45.77 8.63005 45.77H58.25C59.3613 45.77 60.427 45.3286 61.2128 44.5428C61.9986 43.757 62.44 42.6913 62.44 41.58V8.00002C62.444 7.44679 62.3386 6.89823 62.1299 6.38585C61.9213 5.87346 61.6134 5.40736 61.2241 5.0143C60.8347 4.62124 60.3716 4.30898 59.8612 4.09545C59.3508 3.88192 58.8033 3.77132 58.25 3.77002V3.77002Z" fill="#A9B3B6"/>
<path d="M53.5301 52.1301C52.9101 52.2701 52.2601 52.3201 51.7001 52.5101C49.6001 53.9301 48.4401 54.9601 46.0801 53.0501C45.5643 52.5917 44.909 52.3204 44.2201 52.2801C43.9505 52.2627 43.6829 52.2226 43.4201 52.1601V59.3901C43.4184 59.5832 43.4726 59.7725 43.5762 59.9354C43.6797 60.0983 43.8283 60.2278 44.0038 60.3081C44.1793 60.3885 44.3743 60.4163 44.5653 60.3883C44.7563 60.3603 44.9351 60.2775 45.0801 60.1501L48.4801 57.1501L51.8701 60.1501C52.0151 60.2775 52.1939 60.3603 52.3849 60.3883C52.5759 60.4163 52.7709 60.3885 52.9464 60.3081C53.1219 60.2278 53.2704 60.0983 53.374 59.9354C53.4776 59.7725 53.5318 59.5832 53.5301 59.3901C53.5101 59.3001 53.5401 54.2301 53.5301 52.1301Z" fill="#007BC1"/>
<path d="M56.81 42.32C56.3322 41.8129 56.0458 41.1552 56 40.46C55.68 37.46 54.11 37.46 51.66 36.92C49.57 35.51 48.4 34.46 46.04 36.38C45.5272 36.8432 44.8702 37.1152 44.18 37.15C41.18 37.46 41.18 39.04 40.64 41.49C40.12 42.49 39.04 43.32 39.05 44.72C39.05 46.56 40.82 47.25 40.87 48.97C40.8604 49.4073 40.9395 49.842 41.1025 50.2479C41.2655 50.6538 41.5089 51.0225 41.8182 51.3318C42.1275 51.6411 42.4962 51.8845 42.9021 52.0475C43.308 52.2105 43.7427 52.2895 44.18 52.28C44.8689 52.3203 45.5242 52.5916 46.04 53.05C48.4 54.96 49.56 53.93 51.66 52.51C52.74 52.14 54.12 52.31 55.07 51.35C56.02 50.39 55.86 49.03 56.22 47.94C57.67 45.85 58.72 44.68 56.81 42.32Z" fill="#F6871F"/>
<path d="M38.83 8.07007H28.04C27.4878 8.07007 27.04 8.51778 27.04 9.07007V20.7301C27.04 21.2824 27.4878 21.7301 28.04 21.7301H38.83C39.3823 21.7301 39.83 21.2824 39.83 20.7301V9.07007C39.83 8.51778 39.3823 8.07007 38.83 8.07007Z" fill="#5C5D60"/>
<path d="M13.4401 25.78H53.0001C53.2653 25.78 53.5196 25.6747 53.7072 25.4871C53.8947 25.2996 54.0001 25.0452 54.0001 24.78C54.0001 24.5148 53.8947 24.2605 53.7072 24.0729C53.5196 23.8854 53.2653 23.78 53.0001 23.78H13.4401C13.1748 23.78 12.9205 23.8854 12.733 24.0729C12.5454 24.2605 12.4401 24.5148 12.4401 24.78C12.4401 25.0452 12.5454 25.2996 12.733 25.4871C12.9205 25.6747 13.1748 25.78 13.4401 25.78V25.78Z" fill="#5C5D60"/>
<path d="M53.0001 29.79H13.4401C13.1748 29.79 12.9205 29.8954 12.733 30.0829C12.5454 30.2705 12.4401 30.5248 12.4401 30.79C12.4401 31.0553 12.5454 31.3096 12.733 31.4971C12.9205 31.6847 13.1748 31.79 13.4401 31.79H53.0001C53.2653 31.79 53.5196 31.6847 53.7072 31.4971C53.8947 31.3096 54.0001 31.0553 54.0001 30.79C54.0001 30.5248 53.8947 30.2705 53.7072 30.0829C53.5196 29.8954 53.2653 29.79 53.0001 29.79Z" fill="#5C5D60"/>
<path d="M33.4401 35.8101H13.4401C13.1748 35.8101 12.9205 35.9154 12.733 36.103C12.5454 36.2905 12.4401 36.5448 12.4401 36.8101C12.4401 37.0753 12.5454 37.3296 12.733 37.5172C12.9205 37.7047 13.1748 37.8101 13.4401 37.8101H33.4401C33.7053 37.8101 33.9596 37.7047 34.1472 37.5172C34.3347 37.3296 34.4401 37.0753 34.4401 36.8101C34.4401 36.5448 34.3347 36.2905 34.1472 36.103C33.9596 35.9154 33.7053 35.8101 33.4401 35.8101Z" fill="#5C5D60"/>
</svg>
